<svg width="512" height="512" viewBox="0 0 512 512" fill="none" xmlns="http://www.w3.org/2000/svg">
<g clip-path="url(#clip0_1_2)">
<mask id="mask0_1_2" style="mask-type:alpha" maskUnits="userSpaceOnUse" x="256" y="47" width="284" height="441">
<rect x="256" y="47" width="284" height="441" fill="#D9D9D9"/>
</mask>
<g mask="url(#mask0_1_2)">
<g filter="url(#filter0_d_1_2)">
<path d="M197.42 444.8C188.913 444.8 181.567 442.673 175.38 438.42C169.58 433.78 166.68 423.147 166.68 406.52C166.68 398.013 167.453 387.767 169 375.78C170.933 363.407 172.867 350.647 174.8 337.5C177.893 318.94 180.987 298.64 184.08 276.6C187.173 254.173 188.72 231.94 188.72 209.9C188.72 186.7 187.947 168.913 186.4 156.54C184.853 144.167 183.113 134.113 181.18 126.38C180.407 122.127 179.633 118.26 178.86 114.78C178.473 111.3 178.28 107.433 178.28 103.18C178.28 90.8067 182.147 81.5267 189.88 75.34C198 68.7666 206.893 65.48 216.56 65.48C226.227 65.48 234.347 67.9933 240.92 73.02C247.493 77.66 253.293 82.6867 258.32 88.1C291.573 125.607 321.54 165.047 348.22 206.42C374.9 247.407 397.133 289.553 414.92 332.86C416.853 335.953 418.593 337.5 420.14 337.5C422.46 337.5 424.007 335.953 424.78 332.86C431.74 287.62 435.22 246.633 435.22 209.9C435.22 187.86 434.253 170.46 432.32 157.7C430.773 144.553 428.647 134.5 425.94 127.54C423.62 120.193 421.3 114.393 418.98 110.14C417.82 107.433 416.853 105.113 416.08 103.18C415.307 100.86 414.92 98.7333 414.92 96.8C414.92 92.16 417.24 87.52 421.88 82.88C426.907 77.8533 432.9 73.7933 439.86 70.7C446.82 67.6067 453.587 66.06 460.16 66.06C469.44 66.06 476.207 69.1533 480.46 75.34C484.713 81.5267 487.42 89.26 488.58 98.54C490.127 107.433 490.9 116.52 490.9 125.8C490.9 136.24 489.933 149.773 488 166.4C486.067 183.027 483.747 201.007 481.04 220.34C478.72 239.287 476.593 258.04 474.66 276.6C473.113 295.16 472.34 311.593 472.34 325.9C472.34 334.02 472.533 341.947 472.92 349.68C473.693 357.413 474.467 364.953 475.24 372.3C476.4 381.967 476.98 390.473 476.98 397.82C476.98 412.127 473.307 423.533 465.96 432.04C459 440.16 449.333 444.22 436.96 444.22C428.453 444.22 419.947 441.707 411.44 436.68C403.32 431.653 397.133 423.533 392.88 412.32C376.253 369.787 355.76 328.413 331.4 288.2C307.427 247.6 282.293 212.607 256 183.22C251.747 179.353 248.267 177.42 245.56 177.42C241.693 177.42 239.18 181.673 238.02 190.18C236.087 204.873 234.153 220.92 232.22 238.32C230.287 255.72 228.74 272.733 227.58 289.36C226.42 305.6 225.84 319.52 225.84 331.12C225.84 344.267 227 355.673 229.32 365.34C231.64 374.62 235.12 383.707 239.76 392.6C244.013 400.333 246.14 407.293 246.14 413.48C246.14 420.827 241.887 427.98 233.38 434.94C224.873 441.513 212.887 444.8 197.42 444.8Z" fill="#003E9B"/>
<path d="M175.38 438.42L172.257 442.324L172.398 442.438L172.547 442.54L175.38 438.42ZM169 375.78L164.06 375.008L164.05 375.074L164.041 375.14L169 375.78ZM174.8 337.5L169.868 336.678L169.86 336.725L169.853 336.773L174.8 337.5ZM184.08 276.6L189.031 277.295L189.033 277.283L184.08 276.6ZM186.4 156.54L181.439 157.16L181.439 157.16L186.4 156.54ZM181.18 126.38L176.261 127.274L176.29 127.435L176.329 127.593L181.18 126.38ZM178.86 114.78L173.891 115.332L173.92 115.601L173.979 115.865L178.86 114.78ZM189.88 75.34L193.003 79.2443L193.015 79.2353L193.026 79.2262L189.88 75.34ZM240.92 73.02L237.883 76.9918L237.959 77.0498L238.037 77.1048L240.92 73.02ZM258.32 88.1L262.061 84.783L262.023 84.7399L261.984 84.6977L258.32 88.1ZM348.22 206.42L344.018 209.13L344.024 209.139L344.03 209.148L348.22 206.42ZM414.92 332.86L410.295 334.76L410.456 335.151L410.68 335.51L414.92 332.86ZM424.78 332.86L429.631 334.073L429.687 333.849L429.722 333.62L424.78 332.86ZM432.32 157.7L427.354 158.284L427.364 158.367L427.376 158.449L432.32 157.7ZM425.94 127.54L421.172 129.046L421.221 129.201L421.28 129.352L425.94 127.54ZM418.98 110.14L414.384 112.11L414.477 112.327L414.591 112.534L418.98 110.14ZM416.08 103.18L411.337 104.761L411.383 104.9L411.438 105.037L416.08 103.18ZM421.88 82.88L425.416 86.4155L425.416 86.4155L421.88 82.88ZM439.86 70.7L437.829 66.1309L437.829 66.1309L439.86 70.7ZM480.46 75.34L476.34 78.1726L476.34 78.1726L480.46 75.34ZM488.58 98.54L483.619 99.1602L483.633 99.2789L483.654 99.3967L488.58 98.54ZM488 166.4L483.033 165.822L483.033 165.822L488 166.4ZM481.04 220.34L476.088 219.647L476.082 219.689L476.077 219.732L481.04 220.34ZM474.66 276.6L469.687 276.082L469.682 276.133L469.677 276.185L474.66 276.6ZM472.92 349.68L467.926 349.93L467.932 350.054L467.945 350.178L472.92 349.68ZM475.24 372.3L470.267 372.823L470.271 372.86L470.276 372.896L475.24 372.3ZM465.96 432.04L462.176 428.772L462.17 428.779L462.164 428.786L465.96 432.04ZM411.44 436.68L408.808 440.931L408.852 440.958L408.896 440.985L411.44 436.68ZM392.88 412.32L397.555 410.547L397.546 410.523L397.537 410.5L392.88 412.32ZM331.4 288.2L327.095 290.742L327.109 290.767L327.123 290.791L331.4 288.2ZM256 183.22L259.726 179.886L259.554 179.694L259.363 179.52L256 183.22ZM238.02 190.18L233.066 189.504L233.064 189.516L233.063 189.528L238.02 190.18ZM232.22 238.32L237.189 238.872L237.189 238.872L232.22 238.32ZM227.58 289.36L232.567 289.716L232.568 289.708L227.58 289.36ZM229.32 365.34L224.458 366.507L224.464 366.53L224.469 366.553L229.32 365.34ZM239.76 392.6L235.327 394.913L235.352 394.961L235.379 395.01L239.76 392.6ZM233.38 434.94L236.437 438.896L236.492 438.854L236.546 438.81L233.38 434.94ZM197.42 439.8C189.785 439.8 183.458 437.906 178.213 434.3L172.547 442.54C179.675 447.441 188.041 449.8 197.42 449.8V439.8ZM178.503 434.516C176.743 433.107 174.979 430.415 173.679 425.649C172.389 420.92 171.68 414.59 171.68 406.52H161.68C161.68 415.077 162.421 422.377 164.031 428.281C165.631 434.148 168.217 439.093 172.257 442.324L178.503 434.516ZM171.68 406.52C171.68 398.295 172.429 388.275 173.959 376.42L164.041 375.14C162.477 387.259 161.68 397.731 161.68 406.52H171.68ZM173.94 376.552C175.876 364.163 177.811 351.388 179.747 338.227L169.853 336.773C167.922 349.905 165.991 362.65 164.06 375.008L173.94 376.552ZM179.732 338.322C182.833 319.713 185.933 299.37 189.031 277.295L179.129 275.905C176.04 297.91 172.953 318.167 169.868 336.678L179.732 338.322ZM189.033 277.283C192.157 254.636 193.72 232.175 193.72 209.9H183.72C183.72 231.705 182.19 253.71 179.127 275.917L189.033 277.283ZM193.72 209.9C193.72 186.637 192.947 168.604 191.361 155.92L181.439 157.16C182.946 169.222 183.72 186.763 183.72 209.9H193.72ZM191.361 155.92C189.802 143.445 188.032 133.172 186.031 125.167L176.329 127.593C178.195 135.054 179.905 144.889 181.439 157.16L191.361 155.92ZM186.099 125.486C185.317 121.181 184.531 117.25 183.741 113.695L173.979 115.865C174.736 119.27 175.497 123.072 176.261 127.274L186.099 125.486ZM183.829 114.228C183.467 110.965 183.28 107.286 183.28 103.18H173.28C173.28 107.58 173.48 111.635 173.891 115.332L183.829 114.228ZM183.28 103.18C183.28 91.9102 186.747 84.2499 193.003 79.2443L186.757 71.4356C177.547 78.8034 173.28 89.7031 173.28 103.18H183.28ZM193.026 79.2262C200.333 73.3112 208.134 70.48 216.56 70.48V60.48C205.653 60.48 195.667 64.2221 186.734 71.4538L193.026 79.2262ZM216.56 70.48C225.321 70.48 232.323 72.7399 237.883 76.9918L243.957 69.0482C236.371 63.2468 227.133 60.48 216.56 60.48V70.48ZM238.037 77.1048C244.352 81.5625 249.885 86.3643 254.656 91.5022L261.984 84.6977C256.702 79.009 250.635 73.7574 243.803 68.9351L238.037 77.1048ZM254.579 91.417C287.666 128.737 317.478 167.974 344.018 209.13L352.422 203.71C325.602 162.119 295.48 122.477 262.061 84.783L254.579 91.417ZM344.03 209.148C370.547 249.884 392.632 291.754 410.295 334.76L419.545 330.96C401.635 287.352 379.253 244.929 352.41 203.692L344.03 209.148ZM410.68 335.51C411.774 337.26 412.985 338.861 414.353 340.077C415.69 341.265 417.652 342.5 420.14 342.5V332.5C421.082 332.5 421.4 332.961 420.997 332.603C420.625 332.273 420 331.554 419.16 330.21L410.68 335.51ZM420.14 342.5C422.537 342.5 424.803 341.648 426.576 339.876C428.218 338.233 429.119 336.121 429.631 334.073L419.929 331.647C419.805 332.144 419.678 332.464 419.583 332.654C419.49 332.84 419.448 332.861 419.504 332.804C419.572 332.737 419.701 332.638 419.878 332.568C420.049 332.499 420.156 332.5 420.14 332.5V342.5ZM429.722 333.62C436.712 288.187 440.22 246.941 440.22 209.9H430.22C430.22 246.326 426.768 287.053 419.838 332.1L429.722 333.62ZM440.22 209.9C440.22 187.758 439.252 170.072 437.264 156.951L427.376 158.449C429.255 170.848 430.22 187.962 430.22 209.9H440.22ZM437.286 157.116C435.721 143.819 433.535 133.274 430.6 125.728L421.28 129.352C423.759 135.726 425.825 145.288 427.354 158.284L437.286 157.116ZM430.708 126.034C428.34 118.537 425.907 112.398 423.369 107.746L414.591 112.534C416.693 116.389 418.9 121.849 421.172 129.046L430.708 126.034ZM423.576 108.17C422.426 105.487 421.476 103.207 420.722 101.323L411.438 105.037C412.231 107.02 413.214 109.379 414.384 112.11L423.576 108.17ZM420.823 101.599C420.177 99.66 419.92 98.0752 419.92 96.8H409.92C409.92 99.3914 410.436 102.06 411.337 104.761L420.823 101.599ZM419.92 96.8C419.92 93.9538 421.321 90.5105 425.416 86.4155L418.344 79.3444C413.16 84.5294 409.92 90.3662 409.92 96.8H419.92ZM425.416 86.4155C429.978 81.8529 435.451 78.1311 441.891 75.269L437.829 66.1309C430.349 69.4556 423.835 73.8537 418.344 79.3445L425.416 86.4155ZM441.891 75.269C448.312 72.4151 454.389 71.06 460.16 71.06V61.06C452.785 61.06 445.328 62.7982 437.829 66.1309L441.891 75.269ZM460.16 71.06C468.233 71.06 473.243 73.6688 476.34 78.1726L484.58 72.5073C479.17 64.6379 470.647 61.06 460.16 61.06V71.06ZM476.34 78.1726C480.042 83.5574 482.534 90.483 483.619 99.1602L493.541 97.9198C492.306 88.037 489.385 79.496 484.58 72.5073L476.34 78.1726ZM483.654 99.3967C485.15 107.999 485.9 116.799 485.9 125.8H495.9C495.9 116.241 495.103 106.867 493.506 97.6833L483.654 99.3967ZM485.9 125.8C485.9 135.968 484.956 149.288 483.033 165.822L492.967 166.977C494.911 150.259 495.9 136.512 495.9 125.8H485.9ZM483.033 165.822C481.105 182.405 478.79 200.346 476.088 219.647L485.992 221.033C488.703 201.668 491.028 183.648 492.967 166.977L483.033 165.822ZM476.077 219.732C473.754 238.708 471.623 257.491 469.687 276.082L479.633 277.118C481.563 258.589 483.687 239.865 486.003 220.948L476.077 219.732ZM469.677 276.185C468.122 294.844 467.34 311.421 467.34 325.9H477.34C477.34 311.766 478.104 295.476 479.643 277.015L469.677 276.185ZM467.34 325.9C467.34 334.099 467.535 342.109 467.926 349.93L477.914 349.43C477.531 341.784 477.34 333.941 477.34 325.9H467.34ZM467.945 350.178C468.719 357.919 469.493 365.468 470.267 372.823L480.213 371.777C479.44 364.439 478.668 356.908 477.895 349.182L467.945 350.178ZM470.276 372.896C471.419 382.424 471.98 390.724 471.98 397.82H481.98C481.98 390.222 481.381 381.509 480.204 371.704L470.276 372.896ZM471.98 397.82C471.98 411.263 468.543 421.399 462.176 428.772L469.744 435.308C478.07 425.667 481.98 412.99 481.98 397.82H471.98ZM462.164 428.786C456.308 435.618 448.128 439.22 436.96 439.22V449.22C450.539 449.22 461.692 444.702 469.756 435.294L462.164 428.786ZM436.96 439.22C429.484 439.22 421.846 437.021 413.984 432.375L408.896 440.985C418.047 446.392 427.423 449.22 436.96 449.22V439.22ZM414.072 432.429C407.104 428.115 401.52 420.999 397.555 410.547L388.205 414.093C392.747 426.068 399.536 435.191 408.808 440.931L414.072 432.429ZM397.537 410.5C380.803 367.691 360.181 326.061 335.677 285.609L327.123 290.791C351.339 330.766 371.704 371.882 388.223 414.14L397.537 410.5ZM335.705 285.658C311.597 244.828 286.276 209.559 259.726 179.886L252.274 186.554C278.311 215.654 303.257 250.372 327.095 290.742L335.705 285.658ZM259.363 179.52C257.066 177.432 254.817 175.715 252.628 174.499C250.471 173.301 248.07 172.42 245.56 172.42V182.42C245.756 182.42 246.449 182.506 247.772 183.241C249.063 183.958 250.681 185.142 252.637 186.92L259.363 179.52ZM245.56 172.42C241.358 172.42 238.339 174.904 236.47 178.066C234.712 181.041 233.679 185.006 233.066 189.504L242.974 190.856C243.521 186.847 244.324 184.432 245.08 183.154C245.432 182.557 245.669 182.39 245.687 182.378C245.692 182.374 245.666 182.392 245.616 182.407C245.567 182.422 245.541 182.42 245.56 182.42V172.42ZM233.063 189.528C231.124 204.26 229.187 220.34 227.251 237.768L237.189 238.872C239.12 221.5 241.049 205.487 242.977 190.832L233.063 189.528ZM227.251 237.768C225.31 255.232 223.757 272.314 222.592 289.012L232.568 289.708C233.723 273.153 235.263 256.208 237.189 238.872L227.251 237.768ZM222.593 289.004C221.427 305.319 220.84 319.365 220.84 331.12H230.84C230.84 319.675 231.413 305.881 232.567 289.716L222.593 289.004ZM220.84 331.12C220.84 344.542 222.022 356.358 224.458 366.507L234.182 364.173C231.978 354.988 230.84 343.992 230.84 331.12H220.84ZM224.469 366.553C226.889 376.233 230.514 385.687 235.327 394.913L244.193 390.287C239.726 381.726 236.391 373.007 234.171 364.127L224.469 366.553ZM235.379 395.01C239.389 402.301 241.14 408.419 241.14 413.48H251.14C251.14 406.168 248.638 398.366 244.141 390.19L235.379 395.01ZM241.14 413.48C241.14 418.704 238.148 424.578 230.214 431.07L236.546 438.81C245.625 431.382 251.14 422.949 251.14 413.48H241.14ZM230.323 430.984C223.003 436.64 212.251 439.8 197.42 439.8V449.8C213.523 449.8 226.744 446.387 236.437 438.896L230.323 430.984Z" fill="white"/>
</g>
</g>
<g filter="url(#filter1_d_1_2)">
<path d="M244.68 449.54C225.733 449.54 208.14 446.833 191.9 441.42C176.047 435.62 163.287 427.693 153.62 417.64C143.953 407.587 139.12 395.793 139.12 382.26C139.12 373.367 141.247 365.633 145.5 359.06C149.753 352.1 155.553 348.62 162.9 348.62C167.54 348.62 172.373 350.36 177.4 353.84C187.067 362.347 199.44 369.887 214.52 376.46C229.987 382.647 246.42 385.74 263.82 385.74C286.633 385.74 305.193 381.293 319.5 372.4C334.193 363.12 341.54 350.747 341.54 335.28C341.54 320.587 334.773 309.953 321.24 303.38C307.707 296.807 288.953 290.62 264.98 284.82C247.193 280.567 229.987 275.153 213.36 268.58C197.12 262.007 183.587 252.92 172.76 241.32C162.32 229.333 157.1 213.48 157.1 193.76C157.1 178.68 160.387 163.793 166.96 149.1C173.533 134.02 183.2 120.293 195.96 107.92C208.72 95.5466 224.187 85.6866 242.36 78.34C260.533 70.6067 281.027 66.74 303.84 66.74C320.853 66.74 336.32 68.6733 350.24 72.54C364.547 76.4066 375.76 81.82 383.88 88.78C392.387 95.74 396.64 104.247 396.64 114.3C396.64 122.033 394.513 128.8 390.26 134.6C386.007 140.4 380.98 145.04 375.18 148.52C369.38 151.613 364.353 153.16 360.1 153.16C356.233 153.16 351.013 151.42 344.44 147.94C333.613 142.14 321.433 137.693 307.9 134.6C294.753 131.12 283.153 129.38 273.1 129.38C254.153 129.38 238.687 133.633 226.7 142.14C215.1 150.26 209.3 159.927 209.3 171.14C209.3 183.513 216.647 193.953 231.34 202.46C246.42 210.58 273.293 219.28 311.96 228.56C338.253 235.52 358.747 245.187 373.44 257.56C388.133 269.547 395.48 288.687 395.48 314.98C395.48 338.567 389.1 360.607 376.34 381.1C363.967 401.593 346.373 418.22 323.56 430.98C301.133 443.353 274.84 449.54 244.68 449.54Z" fill="#1268E9"/>
<path d="M191.9 441.42L189.151 448.933L189.26 448.973L189.37 449.009L191.9 441.42ZM153.62 417.64L147.853 423.185L153.62 417.64ZM145.5 359.06L152.217 363.406L152.273 363.32L152.326 363.232L145.5 359.06ZM177.4 353.84L182.685 347.834L182.336 347.527L181.954 347.262L177.4 353.84ZM214.52 376.46L211.323 383.794L211.435 383.842L211.549 383.888L214.52 376.46ZM319.5 372.4L323.723 379.194L323.748 379.179L323.772 379.164L319.5 372.4ZM321.24 303.38L317.745 310.576L317.745 310.576L321.24 303.38ZM264.98 284.82L266.861 277.044L266.851 277.042L266.841 277.039L264.98 284.82ZM213.36 268.58L210.358 275.996L210.389 276.008L210.419 276.02L213.36 268.58ZM172.76 241.32L166.727 246.574L166.818 246.678L166.912 246.779L172.76 241.32ZM166.96 149.1L174.263 152.367L174.278 152.332L174.294 152.297L166.96 149.1ZM195.96 107.92L190.391 102.177L190.391 102.177L195.96 107.92ZM242.36 78.34L245.358 85.7569L245.426 85.7296L245.492 85.7012L242.36 78.34ZM350.24 72.54L348.099 80.2481L348.126 80.2556L348.153 80.2629L350.24 72.54ZM383.88 88.78L378.674 94.854L378.743 94.9136L378.814 94.9716L383.88 88.78ZM375.18 148.52L378.945 155.579L379.123 155.484L379.296 155.38L375.18 148.52ZM344.44 147.94L340.662 154.992L340.68 155.001L340.697 155.01L344.44 147.94ZM307.9 134.6L305.853 142.334L305.985 142.368L306.117 142.399L307.9 134.6ZM226.7 142.14L231.288 148.694L231.309 148.679L231.33 148.664L226.7 142.14ZM231.34 202.46L227.332 209.383L227.439 209.445L227.547 209.504L231.34 202.46ZM311.96 228.56L314.007 220.826L313.917 220.803L313.827 220.781L311.96 228.56ZM373.44 257.56L368.287 263.679L368.335 263.719L368.383 263.759L373.44 257.56ZM376.34 381.1L369.549 376.872L369.52 376.918L369.491 376.965L376.34 381.1ZM323.56 430.98L327.425 437.985L327.445 437.973L327.465 437.962L323.56 430.98ZM244.68 441.54C226.502 441.54 209.772 438.945 194.43 433.831L189.37 449.009C206.508 454.722 224.965 457.54 244.68 457.54V441.54ZM194.649 433.907C179.701 428.438 168.051 421.106 159.387 412.095L147.853 423.185C158.522 434.28 172.392 442.802 189.151 448.933L194.649 433.907ZM159.387 412.095C151.104 403.481 147.12 393.657 147.12 382.26H131.12C131.12 397.93 136.802 411.692 147.853 423.185L159.387 412.095ZM147.12 382.26C147.12 374.693 148.911 368.515 152.217 363.406L138.783 354.714C133.582 362.752 131.12 372.04 131.12 382.26H147.12ZM152.326 363.232C155.318 358.336 158.689 356.62 162.9 356.62V340.62C152.418 340.62 144.189 345.864 138.674 354.888L152.326 363.232ZM162.9 356.62C165.468 356.62 168.738 357.573 172.846 360.418L181.954 347.262C176.009 343.147 169.612 340.62 162.9 340.62V356.62ZM172.115 359.846C182.55 369.028 195.683 376.976 211.323 383.794L217.717 369.126C203.197 362.797 191.583 355.665 182.685 347.834L172.115 359.846ZM211.549 383.888C228.002 390.469 245.448 393.74 263.82 393.74V377.74C247.392 377.74 231.971 374.824 217.491 369.032L211.549 383.888ZM263.82 393.74C287.614 393.74 307.775 389.108 323.723 379.194L315.277 365.606C302.612 373.479 285.652 377.74 263.82 377.74V393.74ZM323.772 379.164C340.446 368.633 349.54 353.871 349.54 335.28H333.54C333.54 347.623 327.94 357.607 315.228 365.636L323.772 379.164ZM349.54 335.28C349.54 326.669 347.542 318.791 343.214 311.99C338.894 305.2 332.574 299.991 324.735 296.184L317.745 310.576C323.439 313.342 327.27 316.736 329.716 320.58C332.154 324.412 333.54 329.198 333.54 335.28H349.54ZM324.735 296.184C310.465 289.253 291.087 282.905 266.861 277.044L263.099 292.596C286.82 298.335 304.949 304.361 317.745 310.576L324.735 296.184ZM266.841 277.039C249.413 272.872 232.568 267.571 216.301 261.14L210.419 276.02C227.405 282.735 244.973 288.261 263.119 292.601L266.841 277.039ZM216.362 261.164C201.088 254.982 188.56 246.524 178.608 235.861L166.912 246.779C178.613 259.316 193.152 269.031 210.358 275.996L216.362 261.164ZM178.793 236.066C169.906 225.862 165.1 212.031 165.1 193.76H149.1C149.1 214.929 154.734 232.805 166.727 246.574L178.793 236.066ZM165.1 193.76C165.1 179.881 168.117 166.103 174.263 152.367L159.657 145.833C152.656 161.484 149.1 177.479 149.1 193.76H165.1ZM174.294 152.297C180.418 138.247 189.457 125.37 201.529 113.663L190.391 102.177C176.943 115.217 166.649 129.793 159.626 145.903L174.294 152.297ZM201.529 113.663C213.475 102.079 228.043 92.7566 245.358 85.7569L239.362 70.9231C220.33 78.6167 203.965 89.0144 190.391 102.177L201.529 113.663ZM245.492 85.7012C262.534 78.4497 281.938 74.74 303.84 74.74V58.74C280.116 58.74 258.533 62.7636 239.228 70.9787L245.492 85.7012ZM303.84 74.74C320.254 74.74 334.987 76.6059 348.099 80.2481L352.381 64.8318C337.653 60.7408 321.452 58.74 303.84 58.74V74.74ZM348.153 80.2629C361.727 83.9315 371.736 88.9079 378.674 94.854L389.086 82.7059C379.784 74.7321 367.367 68.8818 352.327 64.8171L348.153 80.2629ZM378.814 94.9716C385.661 100.574 388.64 106.89 388.64 114.3H404.64C404.64 101.604 399.112 90.9064 388.946 82.5883L378.814 94.9716ZM388.64 114.3C388.64 120.467 386.979 125.547 383.809 129.869L396.711 139.331C402.048 132.053 404.64 123.599 404.64 114.3H388.64ZM383.809 129.869C380.144 134.866 375.895 138.761 371.064 141.66L379.296 155.38C386.065 151.318 391.869 145.934 396.711 139.331L383.809 129.869ZM371.415 141.461C366.199 144.243 362.515 145.16 360.1 145.16V161.16C366.192 161.16 372.561 158.984 378.945 155.579L371.415 141.461ZM360.1 145.16C358.262 145.16 354.483 144.205 348.183 140.87L340.697 155.01C347.544 158.635 354.204 161.16 360.1 161.16V145.16ZM348.218 140.888C336.687 134.711 323.822 130.033 309.683 126.801L306.117 142.399C319.044 145.354 330.54 149.569 340.662 154.992L348.218 140.888ZM309.947 126.866C296.35 123.267 284.038 121.38 273.1 121.38V137.38C282.268 137.38 293.156 138.973 305.853 142.334L309.947 126.866ZM273.1 121.38C252.973 121.38 235.754 125.905 222.07 135.616L231.33 148.664C241.62 141.362 255.334 137.38 273.1 137.38V121.38ZM222.112 135.586C209.003 144.763 201.3 156.633 201.3 171.14H217.3C217.3 163.221 221.197 155.757 231.288 148.694L222.112 135.586ZM201.3 171.14C201.3 187.39 211.203 200.046 227.332 209.383L235.348 195.537C222.09 187.861 217.3 179.636 217.3 171.14H201.3ZM227.547 209.504C243.626 218.162 271.403 227.053 310.093 236.339L313.827 220.781C275.184 211.507 249.214 202.998 235.133 195.416L227.547 209.504ZM309.913 236.294C335.507 243.069 354.792 252.315 368.287 263.679L378.593 251.441C362.702 238.058 341 227.971 314.007 220.826L309.913 236.294ZM368.383 263.759C380.569 273.7 387.48 290.112 387.48 314.98H403.48C403.48 287.262 395.698 265.393 378.497 251.361L368.383 263.759ZM387.48 314.98C387.48 337.035 381.538 357.616 369.549 376.872L383.131 385.328C396.662 363.598 403.48 340.098 403.48 314.98H387.48ZM369.491 376.965C357.901 396.163 341.371 411.852 319.655 423.998L327.465 437.962C351.376 424.588 370.033 407.024 383.189 385.235L369.491 376.965ZM319.695 423.975C298.646 435.589 273.729 441.54 244.68 441.54V457.54C275.951 457.54 303.62 451.118 327.425 437.985L319.695 423.975Z" fill="white"/>
</g>
<g filter="url(#filter2_d_1_2)">
<path d="M283.808 277.304C277.488 277.304 274.328 271.195 274.328 258.976C274.328 251.813 274.96 244.44 276.224 236.856C277.909 228.851 280.437 222.32 283.808 217.264C284.651 216 286.125 214.736 288.232 213.472C290.339 211.787 293.288 210.944 297.08 210.944H433.592C438.648 210.944 441.808 212.208 443.072 214.736C444.757 216.843 445.6 220.213 445.6 224.848C445.6 229.483 444.968 235.381 443.704 242.544C442.44 249.707 440.333 256.027 437.384 261.504C434.435 266.981 430.432 269.72 425.376 269.72H369.128C354.381 269.72 340.899 270.352 328.68 271.616C316.461 272.88 306.349 274.144 298.344 275.408C292.024 276.672 287.179 277.304 283.808 277.304Z" fill="#003E9B"/>
<path d="M276.224 236.856L268.396 235.208L268.361 235.374L268.333 235.541L276.224 236.856ZM283.808 217.264L290.464 221.702L290.464 221.702L283.808 217.264ZM288.232 213.472L292.348 220.332L292.809 220.055L293.23 219.719L288.232 213.472ZM443.072 214.736L435.917 218.314L436.296 219.072L436.825 219.734L443.072 214.736ZM443.704 242.544L451.582 243.934L451.582 243.934L443.704 242.544ZM437.384 261.504L444.428 265.297L444.428 265.297L437.384 261.504ZM328.68 271.616L329.503 279.574L329.503 279.574L328.68 271.616ZM298.344 275.408L297.096 267.506L296.935 267.531L296.775 267.563L298.344 275.408ZM283.808 269.304C283.573 269.304 283.735 269.267 283.994 269.434C284.216 269.577 284.092 269.604 283.804 269.047C283.106 267.697 282.328 264.656 282.328 258.976H266.328C266.328 265.515 267.13 271.637 269.592 276.397C270.884 278.894 272.735 281.213 275.327 282.883C277.956 284.577 280.883 285.304 283.808 285.304V269.304ZM282.328 258.976C282.328 252.285 282.918 245.352 284.115 238.171L268.333 235.541C267.002 243.528 266.328 251.342 266.328 258.976H282.328ZM284.052 238.504C285.596 231.17 287.817 225.673 290.464 221.702L277.152 212.826C273.058 218.967 270.222 226.531 268.396 235.208L284.052 238.504ZM290.464 221.702C290.385 221.821 290.425 221.723 290.752 221.442C291.073 221.167 291.584 220.791 292.348 220.332L284.116 206.612C281.549 208.152 278.935 210.152 277.152 212.826L290.464 221.702ZM293.23 219.719C293.441 219.55 294.381 218.944 297.08 218.944V202.944C292.195 202.944 287.237 204.023 283.234 207.225L293.23 219.719ZM297.08 218.944H433.592V202.944H297.08V218.944ZM433.592 218.944C435.551 218.944 436.49 219.203 436.783 219.32C436.893 219.364 436.776 219.335 436.562 219.151C436.331 218.953 436.092 218.665 435.917 218.314L450.227 211.158C446.778 204.26 439.216 202.944 433.592 202.944V218.944ZM436.825 219.734C436.774 219.669 436.987 219.906 437.207 220.784C437.427 221.665 437.6 222.982 437.6 224.848H453.6C453.6 219.577 452.705 213.971 449.319 209.738L436.825 219.734ZM437.6 224.848C437.6 228.832 437.049 234.223 435.826 241.154L451.582 243.934C452.887 236.54 453.6 230.133 453.6 224.848H437.6ZM435.826 241.154C434.686 247.615 432.823 253.1 430.34 257.711L444.428 265.297C447.843 258.953 450.194 251.798 451.582 243.934L435.826 241.154ZM430.34 257.711C428.405 261.306 426.763 261.72 425.376 261.72V277.72C434.101 277.72 440.465 272.657 444.428 265.297L430.34 257.711ZM425.376 261.72H369.128V277.72H425.376V261.72ZM369.128 261.72C354.159 261.72 340.397 262.361 327.857 263.658L329.503 279.574C341.401 278.343 354.604 277.72 369.128 277.72V261.72ZM327.857 263.658C315.56 264.931 305.295 266.211 297.096 267.506L299.592 283.31C307.404 282.077 317.362 280.829 329.503 279.574L327.857 263.658ZM296.775 267.563C290.595 268.799 286.372 269.304 283.808 269.304V285.304C287.986 285.304 293.453 284.545 299.913 283.253L296.775 267.563Z" fill="white"/>
</g>
<g filter="url(#filter3_d_1_2)">
<path d="M309.12 448.38C297.133 448.38 286.887 443.353 278.38 433.3C270.26 422.86 262.333 405.847 254.6 382.26C250.733 370.66 247.447 359.447 244.74 348.62C242.42 337.407 240.68 326.58 239.52 316.14C234.493 323.873 229.853 329.093 225.6 331.8C221.733 334.12 215.933 335.28 208.2 335.28C189.253 335.28 169.147 335.087 147.88 334.7C126.613 333.927 107.667 333.347 91.04 332.96C90.2667 339.92 89.4933 347.073 88.72 354.42C88.3333 361.38 88.14 368.34 88.14 375.3C88.14 381.487 88.3333 387.673 88.72 393.86C89.4933 400.047 90.0733 406.04 90.46 411.84C91.62 422.667 87.3667 431.367 77.7 437.94C68.0333 444.513 56.0467 447.8 41.74 447.8C29.3667 447.8 23.18 442.387 23.18 431.56C23.18 424.987 24.92 415.127 28.4 401.98C30.3333 393.087 31.88 385.547 33.04 379.36C34.2 372.787 34.78 367.567 34.78 363.7C34.78 352.873 31.4933 345.527 24.92 341.66C19.5067 338.567 16.8 334.507 16.8 329.48C16.8 324.84 17.7667 319.233 19.7 312.66C22.02 306.087 24.92 300.093 28.4 294.68C31.88 288.88 35.1667 284.82 38.26 282.5C40.9667 280.953 44.2533 279.6 48.12 278.44C51.9867 277.28 56.82 276.507 62.62 276.12C77.7 232.813 94.52 195.5 113.08 164.18C132.027 132.473 152.133 108.113 173.4 91.1C194.667 73.7 216.32 65 238.36 65C251.893 65 261.753 69.64 267.94 78.92C274.127 87.8133 277.22 102.893 277.22 124.16V150.26C277.22 189.313 280.12 225.273 285.92 258.14C291.72 291.007 298.873 317.687 307.38 338.18C315.887 359.833 327.68 377.62 342.76 391.54C347.4 395.407 350.493 398.887 352.04 401.98C353.587 404.687 354.36 407.587 354.36 410.68C354.36 416.48 352.04 422.28 347.4 428.08C343.147 433.88 337.54 438.713 330.58 442.58C323.62 446.447 316.467 448.38 309.12 448.38ZM108.44 272.64C127.387 271.867 144.013 271.287 158.32 270.9C172.627 270.127 184.613 269.74 194.28 269.74H234.88C234.107 258.913 233.333 247.507 232.56 235.52C232.173 223.533 231.98 210.967 231.98 197.82V164.18C231.98 152.967 230.627 145.62 227.92 142.14C225.6 138.273 220.96 136.34 214 136.34C195.053 136.34 176.107 148.713 157.16 173.46C138.213 198.207 121.973 231.267 108.44 272.64Z" fill="#003E9B"/>
<path d="M278.38 433.3L272.065 438.212L272.166 438.342L272.273 438.468L278.38 433.3ZM254.6 382.26L262.202 379.768L262.196 379.749L262.189 379.73L254.6 382.26ZM244.74 348.62L236.906 350.241L236.939 350.401L236.979 350.56L244.74 348.62ZM239.52 316.14L247.471 315.257L245.001 293.028L232.812 311.78L239.52 316.14ZM225.6 331.8L229.716 338.66L229.806 338.606L229.895 338.549L225.6 331.8ZM147.88 334.7L147.589 342.695L147.662 342.697L147.735 342.699L147.88 334.7ZM91.04 332.96L91.226 324.962L83.8984 324.792L83.0889 332.077L91.04 332.96ZM88.72 354.42L80.764 353.583L80.7433 353.779L80.7323 353.976L88.72 354.42ZM88.72 393.86L80.7356 394.359L80.751 394.606L80.7818 394.852L88.72 393.86ZM90.46 411.84L82.4777 412.372L82.4884 412.532L82.5055 412.692L90.46 411.84ZM77.7 437.94L73.2015 431.325L73.2015 431.325L77.7 437.94ZM28.4 401.98L36.1336 404.027L36.1794 403.854L36.2174 403.679L28.4 401.98ZM33.04 379.36L40.903 380.834L40.9108 380.792L40.9183 380.75L33.04 379.36ZM24.92 341.66L28.9762 334.765L28.9328 334.739L28.8891 334.714L24.92 341.66ZM19.7 312.66L12.1561 309.997L12.0852 310.198L12.0251 310.403L19.7 312.66ZM28.4 294.68L35.1294 299.006L35.1963 298.902L35.2599 298.796L28.4 294.68ZM38.26 282.5L34.2909 275.554L33.8585 275.801L33.46 276.1L38.26 282.5ZM48.12 278.44L50.4188 286.103L50.4188 286.103L48.12 278.44ZM62.62 276.12L63.1521 284.102L68.4342 283.75L70.1751 278.751L62.62 276.12ZM113.08 164.18L106.213 160.076L106.205 160.089L106.198 160.102L113.08 164.18ZM173.4 91.1L178.398 97.3469L178.432 97.3195L178.466 97.2916L173.4 91.1ZM267.94 78.92L261.284 83.3576L261.328 83.4235L261.373 83.4885L267.94 78.92ZM285.92 258.14L293.798 256.75L293.798 256.75L285.92 258.14ZM307.38 338.18L314.826 335.255L314.798 335.184L314.769 335.113L307.38 338.18ZM342.76 391.54L337.334 397.418L337.483 397.556L337.639 397.686L342.76 391.54ZM352.04 401.98L344.885 405.558L344.984 405.756L345.094 405.949L352.04 401.98ZM347.4 428.08L341.153 423.082L341.048 423.214L340.949 423.349L347.4 428.08ZM330.58 442.58L326.695 435.587L326.695 435.587L330.58 442.58ZM108.44 272.64L100.836 270.153L97.2546 281.103L108.766 280.633L108.44 272.64ZM158.32 270.9L158.536 278.897L158.644 278.894L158.752 278.888L158.32 270.9ZM234.88 269.74V277.74H243.472L242.86 269.17L234.88 269.74ZM232.56 235.52L224.564 235.778L224.568 235.907L224.577 236.035L232.56 235.52ZM227.92 142.14L221.06 146.256L221.309 146.67L221.605 147.052L227.92 142.14ZM157.16 173.46L150.808 168.597L150.808 168.597L157.16 173.46ZM309.12 440.38C299.737 440.38 291.643 436.59 284.487 428.132L272.273 438.468C282.13 450.117 294.53 456.38 309.12 456.38V440.38ZM284.695 428.388C277.438 419.058 269.854 403.107 262.202 379.768L246.998 384.752C254.813 408.586 263.082 426.662 272.065 438.212L284.695 428.388ZM262.189 379.73C258.382 368.306 255.154 357.29 252.501 346.68L236.979 350.56C239.74 361.603 243.085 373.014 247.011 384.79L262.189 379.73ZM252.574 346.999C250.3 336.008 248.601 325.428 247.471 315.257L231.569 317.023C232.759 327.732 234.54 338.805 236.906 350.241L252.574 346.999ZM232.812 311.78C227.976 319.22 224.093 323.276 221.305 325.051L229.895 338.549C235.614 334.91 241.01 328.527 246.228 320.5L232.812 311.78ZM221.484 324.94C219.46 326.154 215.394 327.28 208.2 327.28V343.28C216.472 343.28 224.006 342.086 229.716 338.66L221.484 324.94ZM208.2 327.28C189.307 327.28 169.249 327.087 148.025 326.701L147.735 342.699C169.044 343.086 189.199 343.28 208.2 343.28V327.28ZM148.171 326.705C126.878 325.931 107.896 325.35 91.226 324.962L90.854 340.958C107.438 341.344 126.348 341.922 147.589 342.695L148.171 326.705ZM83.0889 332.077C82.3138 339.053 81.5388 346.221 80.764 353.583L96.676 355.257C97.4479 347.925 98.2195 340.787 98.9911 333.843L83.0889 332.077ZM80.7323 353.976C80.3375 361.084 80.14 368.192 80.14 375.3H96.14C96.14 368.488 96.3292 361.676 96.7077 354.864L80.7323 353.976ZM80.14 375.3C80.14 381.653 80.3386 388.007 80.7356 394.359L96.7044 393.361C96.3281 387.34 96.14 381.32 96.14 375.3H80.14ZM80.7818 394.852C81.5374 400.897 82.102 406.737 82.4777 412.372L98.4423 411.308C98.0447 405.343 97.4493 399.196 96.6582 392.868L80.7818 394.852ZM82.5055 412.692C82.9455 416.799 82.3378 420.139 80.9529 422.971C79.5525 425.836 77.1221 428.659 73.2015 431.325L82.1985 444.555C87.9446 440.648 92.4742 435.834 95.3271 429.999C98.1956 424.131 99.1345 417.708 98.4145 410.988L82.5055 412.692ZM73.2015 431.325C65.133 436.811 54.8053 439.8 41.74 439.8V455.8C57.2881 455.8 70.9337 452.215 82.1985 444.555L73.2015 431.325ZM41.74 439.8C36.5436 439.8 34.1404 438.64 33.088 437.719C32.2397 436.977 31.18 435.442 31.18 431.56H15.18C15.18 438.505 17.2136 445.09 22.552 449.761C27.6863 454.253 34.5631 455.8 41.74 455.8V439.8ZM31.18 431.56C31.18 426.08 32.6842 417.058 36.1336 404.027L20.6664 399.933C17.1558 413.195 15.18 423.893 15.18 431.56H31.18ZM36.2174 403.679C38.1605 394.741 39.7242 387.121 40.903 380.834L25.177 377.886C24.0358 383.972 22.5061 391.432 20.5826 400.281L36.2174 403.679ZM40.9183 380.75C42.1101 373.997 42.78 368.249 42.78 363.7H26.78C26.78 366.884 26.2899 371.577 25.1617 377.97L40.9183 380.75ZM42.78 363.7C42.78 351.356 38.9481 340.63 28.9762 334.765L20.8638 348.555C24.0386 350.423 26.78 354.39 26.78 363.7H42.78ZM28.8891 334.714C25.2674 332.644 24.8 330.911 24.8 329.48H8.8C8.8 338.103 13.746 344.489 20.9509 348.606L28.8891 334.714ZM24.8 329.48C24.8 325.874 25.5648 321.072 27.3749 314.917L12.0251 310.403C9.96849 317.395 8.8 323.806 8.8 329.48H24.8ZM27.2439 315.323C29.3747 309.285 32.0109 303.857 35.1294 299.006L21.6706 290.354C17.8291 296.33 14.6653 302.888 12.1561 309.997L27.2439 315.323ZM35.2599 298.796C38.5462 293.319 41.195 290.299 43.06 288.9L33.46 276.1C29.1383 279.341 25.2138 284.441 21.5401 290.564L35.2599 298.796ZM42.2291 289.446C44.2799 288.274 46.9735 287.136 50.4188 286.103L45.8212 270.777C41.5332 272.064 37.6535 273.633 34.2909 275.554L42.2291 289.446ZM50.4188 286.103C53.52 285.172 57.7135 284.465 63.1521 284.102L62.0879 268.138C55.9265 268.548 50.4533 269.388 45.8212 270.777L50.4188 286.103ZM70.1751 278.751C85.1226 235.825 101.734 199.019 119.962 168.258L106.198 160.102C87.3064 191.981 70.2774 229.802 55.0649 273.489L70.1751 278.751ZM119.947 168.284C138.567 137.124 158.091 113.592 178.398 97.3469L168.402 84.853C146.176 102.634 125.486 127.822 106.213 160.076L119.947 168.284ZM178.466 97.2916C198.665 80.7647 218.586 73 238.36 73V57C214.054 57 190.668 66.6352 168.334 84.9083L178.466 97.2916ZM238.36 73C249.872 73 256.91 76.7969 261.284 83.3576L274.596 74.4824C266.597 62.483 253.915 57 238.36 57V73ZM261.373 83.4885C266.084 90.2612 269.22 103.209 269.22 124.16H285.22C285.22 102.577 282.169 85.3654 274.507 74.3515L261.373 83.4885ZM269.22 124.16V150.26H285.22V124.16H269.22ZM269.22 150.26C269.22 189.703 272.148 226.135 278.042 259.53L293.798 256.75C288.092 224.412 285.22 188.924 285.22 150.26H269.22ZM278.042 259.53C283.898 292.715 291.179 320.017 299.991 341.247L314.769 335.113C306.568 315.356 299.542 289.298 293.798 256.75L278.042 259.53ZM299.934 341.105C308.823 363.732 321.254 382.576 337.334 397.418L348.186 385.662C334.106 372.664 322.95 355.935 314.826 335.255L299.934 341.105ZM337.639 397.686C341.97 401.296 344.071 403.93 344.885 405.558L359.195 398.402C356.916 393.844 352.83 389.518 347.881 385.394L337.639 397.686ZM345.094 405.949C345.956 407.457 346.36 408.99 346.36 410.68H362.36C362.36 406.183 361.218 401.916 358.986 398.011L345.094 405.949ZM346.36 410.68C346.36 414.206 344.981 418.297 341.153 423.082L353.647 433.078C359.099 426.263 362.36 418.754 362.36 410.68H346.36ZM340.949 423.349C337.448 428.123 332.755 432.22 326.695 435.587L334.465 449.573C342.325 445.207 348.846 439.637 353.851 432.811L340.949 423.349ZM326.695 435.587C320.821 438.85 314.995 440.38 309.12 440.38V456.38C317.939 456.38 326.419 454.043 334.465 449.573L326.695 435.587ZM108.766 280.633C127.687 279.861 144.276 279.282 158.536 278.897L158.104 262.903C143.751 263.291 127.086 263.872 108.114 264.647L108.766 280.633ZM158.752 278.888C172.976 278.119 184.808 277.74 194.28 277.74V261.74C184.419 261.74 172.277 262.134 157.888 262.912L158.752 278.888ZM194.28 277.74H234.88V261.74H194.28V277.74ZM242.86 269.17C242.088 258.363 241.316 246.975 240.543 235.005L224.577 236.035C225.351 248.038 226.126 259.463 226.9 270.31L242.86 269.17ZM240.556 235.262C240.172 223.369 239.98 210.889 239.98 197.82H223.98C223.98 211.045 224.174 223.698 224.564 235.778L240.556 235.262ZM239.98 197.82V164.18H223.98V197.82H239.98ZM239.98 164.18C239.98 158.303 239.629 153.136 238.833 148.811C238.064 144.641 236.745 140.455 234.235 137.228L221.605 147.052C221.802 147.304 222.512 148.533 223.097 151.709C223.654 154.731 223.98 158.844 223.98 164.18H239.98ZM234.78 138.024C230.337 130.62 222.141 128.34 214 128.34V144.34C219.779 144.34 220.863 145.927 221.06 146.256L234.78 138.024ZM214 128.34C191.314 128.34 170.299 143.139 150.808 168.597L163.512 178.323C181.915 154.287 198.793 144.34 214 144.34V128.34ZM150.808 168.597C131.143 194.281 114.547 228.236 100.836 270.153L116.044 275.127C129.399 234.297 145.283 202.132 163.512 178.323L150.808 168.597Z" fill="white"/>
</g>
</g>
<defs>
<filter id="filter0_d_1_2" x="162.68" y="65.48" width="332.22" height="387.32" filterUnits="userSpaceOnUse" color-interpolation-filters="sRGB">
<feFlood flood-opacity="0" result="BackgroundImageFix"/>
<feColorMatrix in="SourceAlpha" type="matrix" values="0 0 0 0 0 0 0 0 0 0 0 0 0 0 0 0 0 0 127 0" result="hardAlpha"/>
<feOffset dy="4"/>
<feGaussianBlur stdDeviation="2"/>
<feComposite in2="hardAlpha" operator="out"/>
<feColorMatrix type="matrix" values="0 0 0 0 0 0 0 0 0 0 0 0 0 0 0 0 0 0 0.25 0"/>
<feBlend mode="normal" in2="BackgroundImageFix" result="effect1_dropShadow_1_2"/>
<feBlend mode="normal" in="SourceGraphic" in2="effect1_dropShadow_1_2" result="shape"/>
</filter>
<filter id="filter1_d_1_2" x="135.12" y="66.74" width="265.52" height="390.8" filterUnits="userSpaceOnUse" color-interpolation-filters="sRGB">
<feFlood flood-opacity="0" result="BackgroundImageFix"/>
<feColorMatrix in="SourceAlpha" type="matrix" values="0 0 0 0 0 0 0 0 0 0 0 0 0 0 0 0 0 0 127 0" result="hardAlpha"/>
<feOffset dy="4"/>
<feGaussianBlur stdDeviation="2"/>
<feComposite in2="hardAlpha" operator="out"/>
<feColorMatrix type="matrix" values="0 0 0 0 0 0 0 0 0 0 0 0 0 0 0 0 0 0 0.25 0"/>
<feBlend mode="normal" in2="BackgroundImageFix" result="effect1_dropShadow_1_2"/>
<feBlend mode="normal" in="SourceGraphic" in2="effect1_dropShadow_1_2" result="shape"/>
</filter>
<filter id="filter2_d_1_2" x="270.328" y="210.944" width="179.272" height="74.36" filterUnits="userSpaceOnUse" color-interpolation-filters="sRGB">
<feFlood flood-opacity="0" result="BackgroundImageFix"/>
<feColorMatrix in="SourceAlpha" type="matrix" values="0 0 0 0 0 0 0 0 0 0 0 0 0 0 0 0 0 0 127 0" result="hardAlpha"/>
<feOffset dy="4"/>
<feGaussianBlur stdDeviation="2"/>
<feComposite in2="hardAlpha" operator="out"/>
<feColorMatrix type="matrix" values="0 0 0 0 0 0 0 0 0 0 0 0 0 0 0 0 0 0 0.25 0"/>
<feBlend mode="normal" in2="BackgroundImageFix" result="effect1_dropShadow_1_2"/>
<feBlend mode="normal" in="SourceGraphic" in2="effect1_dropShadow_1_2" result="shape"/>
</filter>
<filter id="filter3_d_1_2" x="12.8" y="65" width="345.56" height="391.38" filterUnits="userSpaceOnUse" color-interpolation-filters="sRGB">
<feFlood flood-opacity="0" result="BackgroundImageFix"/>
<feColorMatrix in="SourceAlpha" type="matrix" values="0 0 0 0 0 0 0 0 0 0 0 0 0 0 0 0 0 0 127 0" result="hardAlpha"/>
<feOffset dy="4"/>
<feGaussianBlur stdDeviation="2"/>
<feComposite in2="hardAlpha" operator="out"/>
<feColorMatrix type="matrix" values="0 0 0 0 0 0 0 0 0 0 0 0 0 0 0 0 0 0 0.25 0"/>
<feBlend mode="normal" in2="BackgroundImageFix" result="effect1_dropShadow_1_2"/>
<feBlend mode="normal" in="SourceGraphic" in2="effect1_dropShadow_1_2" result="shape"/>
</filter>
<clipPath id="clip0_1_2">
<rect width="512" height="512" fill="white"/>
</clipPath>
</defs>
</svg>
